<?xml version="1.0" standalone="no"?><!DOCTYPE svg PUBLIC "-//W3C//DTD SVG 1.1//EN" "http://www.w3.org/Graphics/SVG/1.1/DTD/svg11.dtd"><svg t="1527600966065" class="icon" style="" viewBox="0 0 1024 1024" version="1.1" xmlns="http://www.w3.org/2000/svg" p-id="661" xmlns:xlink="http://www.w3.org/1999/xlink" width="48" height="48"><defs><style type="text/css"></style></defs><path d="M907.093333 916.672H586.24a31.573333 31.573333 0 0 1-31.573333-31.573333v-0.192A31.573333 31.573333 0 0 1 586.24 853.333333h320.853333A31.573333 31.573333 0 0 1 938.666667 884.906667v0.192a31.573333 31.573333 0 0 1-31.573334 31.573333z m0-362.666667H586.24a31.573333 31.573333 0 0 1-31.573333-31.573333v-0.192A31.552 31.552 0 0 1 586.24 490.666667h320.853333A31.552 31.552 0 0 1 938.666667 522.24v0.192a31.573333 31.573333 0 0 1-31.573334 31.573333z m0-384H586.24A31.573333 31.573333 0 0 1 554.666667 138.432V138.24A31.573333 31.573333 0 0 1 586.24 106.666667h320.853333A31.573333 31.573333 0 0 1 938.666667 138.24v0.192a31.573333 31.573333 0 0 1-31.573334 31.573333zM296.832 484.096a42.666667 42.666667 0 0 1-60.330667 0l-165.930666-165.930667a42.666667 42.666667 0 0 1 0-60.330666l165.930666-165.930667a42.666667 42.666667 0 0 1 60.330667 0l165.930667 165.930667a42.666667 42.666667 0 0 1 0 60.330666zM138.965333 597.333333h256a42.666667 42.666667 0 0 1 42.666667 42.666667v256a42.666667 42.666667 0 0 1-42.666667 42.666667h-256a42.666667 42.666667 0 0 1-42.666666-42.666667V640a42.666667 42.666667 0 0 1 42.709333-42.666667z" p-id="662"></path></svg>